<svg width="18" height="15" viewBox="0 0 18 15" fill="none" xmlns="http://www.w3.org/2000/svg"><path d="M18.2154 0.644287H16.3061C15.7148 0.644287 15.2355 1.15699 15.2355 1.78939V3.38723L15.501 3.33924L16.9373 1.49912L15.8752 3.95876L14.2788 4.24753C14.2466 4.18421 14.2013 4.12627 14.1429 4.07828C13.9163 3.89205 13.5815 3.92479 13.3953 4.15147C13.1285 4.47606 11.1639 6.86707 10.8913 7.19877C10.5881 7.19877 9.80269 7.19877 9.50778 7.19877C9.1658 6.62735 7.60295 4.01572 7.3044 3.51673C7.15369 3.265 6.82752 3.18299 6.57582 3.33366C6.43024 3.42079 6.34191 3.56675 6.32202 3.72293L4.57498 3.7337L3.38656 1.96907L4.65144 3.07707L4.67939 3.07692L4.41225 1.61699C4.33402 1.18946 3.9874 0.880465 3.5845 0.880465C3.06566 0.880465 2.70074 0.880465 2.12487 0.880465C1.72118 0.880465 1.3755 1.18863 1.29712 1.61699L0.00683752 8.66839C-0.0140305 8.78233 0.0134294 8.90031 0.081533 8.99007C0.149637 9.07983 0.251415 9.13223 0.358769 9.13223C0.580671 9.13223 0.873916 9.13223 1.20942 9.13223V14.1254C1.20942 14.5884 1.58475 14.9637 2.04776 14.9637C2.16095 14.9637 2.2688 14.941 2.3673 14.9004C2.21199 14.6812 2.12035 14.4139 2.12035 14.1255V9.13223C2.28628 9.13223 2.45555 9.13223 2.62589 9.13223V14.1254C2.62589 14.5884 3.00121 14.9638 3.46423 14.9638C3.92724 14.9638 4.30256 14.5884 4.30256 14.1254V9.13223C4.45708 9.13223 5.23473 9.13223 5.35056 9.13223C5.45799 9.13223 5.55977 9.08013 5.62791 8.9903C5.69605 8.90046 5.72332 8.78233 5.70249 8.66835L5.1591 5.69846C4.44642 5.70287 4.41018 5.70309 3.96065 5.70584C3.58126 5.70818 3.2572 5.46424 3.13885 5.12493L2.29814 2.70209L3.68308 4.75845C3.80508 4.93952 4.00909 5.04805 4.22727 5.04805C4.22862 5.04805 4.22998 5.04805 4.23133 5.04805C7.08577 5.03042 6.88082 5.03618 6.96633 5.02066C7.13915 5.30942 8.5755 7.70966 8.75085 8.00268C8.75168 8.00411 8.75277 8.00532 8.75367 8.00675V11.3089L8.08164 12.4294L7.19185 11.1422C6.99164 10.8526 6.59462 10.7802 6.30503 10.9804C6.01544 11.1806 5.94297 11.5776 6.14313 11.8672L7.59523 13.9679C7.71449 14.1404 7.91062 14.2428 8.11953 14.2428C8.12639 14.2428 8.13328 14.2427 8.14017 14.2425C8.35665 14.2354 8.55482 14.1189 8.66624 13.9332L9.84141 11.9738H10.4058L10.9573 13.7905C11.021 14.0005 11.1883 14.1629 11.4001 14.2205C11.6107 14.2778 11.8375 14.2233 11.9995 14.0738L14.2758 11.9731C14.5345 11.7344 14.5507 11.3311 14.312 11.0724C14.0732 10.8136 13.6699 10.7975 13.4112 11.0362L11.8818 12.4475L11.5672 11.4109V8.04946C11.7801 7.79035 13.2328 6.0224 13.4394 5.77089C13.4394 5.77089 14.5956 5.62455 16.4976 5.27786C16.6862 5.24373 16.8507 5.13479 16.9559 4.97896C17.0162 4.88965 16.9107 5.11438 18.1916 2.1478C17.6385 5.2406 17.6836 5.03023 17.6397 5.13204C17.4559 5.55758 17.074 5.86084 16.6179 5.9433L15.2214 6.19507L15.2136 14.1076C15.2136 14.6004 15.6131 14.9999 16.106 14.9999C16.2394 14.9999 16.3655 14.9698 16.4792 14.9173C16.3382 14.6803 16.257 14.4035 16.257 14.1076V7.66446H16.951V14.1076C16.951 14.6004 17.3505 15 17.8433 15C18.3362 15 18.7357 14.6004 18.7357 14.1076V7.60758C19.0572 7.48479 19.2859 7.17433 19.2859 6.80974V5.82566V1.78939C19.286 1.15695 18.8066 0.644287 18.2154 0.644287Z" fill="white"/></svg>